<mxfile host="app.diagrams.net" modified="2023-07-31T03:47:08.399Z" agent="Mozilla/5.0 (Windows NT 10.0; Win64; x64) AppleWebKit/537.36 (KHTML, like Gecko) Chrome/115.0.0.0 Safari/537.36 Edg/115.0.1901.183" etag="fV-7MzZGkvrGVPCFG5C0" version="21.6.6" type="github">
  <diagram name="Page-1" id="vbewadXqxQKbsspDtFwr">
    <mxGraphModel dx="2876" dy="804" grid="1" gridSize="10" guides="1" tooltips="1" connect="1" arrows="1" fold="1" page="1" pageScale="1" pageWidth="850" pageHeight="1100" math="0" shadow="0">
      <root>
        <mxCell id="0" />
        <mxCell id="1" parent="0" />
        <mxCell id="VQkqaN84CaBkrBaP3wh3-1" value="Azure Cloud" style="points=[[0,0],[0.25,0],[0.5,0],[0.75,0],[1,0],[1,0.25],[1,0.5],[1,0.75],[1,1],[0.75,1],[0.5,1],[0.25,1],[0,1],[0,0.75],[0,0.5],[0,0.25]];outlineConnect=0;gradientColor=none;html=1;whiteSpace=wrap;fontSize=12;fontStyle=0;container=1;pointerEvents=0;collapsible=0;recursiveResize=0;shape=mxgraph.aws4.group;grIcon=mxgraph.aws4.group_aws_cloud;strokeColor=#232F3E;fillColor=#FFFFFF;verticalAlign=top;align=left;spacingLeft=30;fontColor=#232F3E;dashed=0;" vertex="1" parent="1">
          <mxGeometry x="120" y="200" width="1000" height="760" as="geometry" />
        </mxCell>
        <mxCell id="VQkqaN84CaBkrBaP3wh3-5" value="" style="rounded=0;labelBackgroundColor=#FFFFFF;fillColor=#F2F2F2;strokeColor=#DEDEDE;" vertex="1" parent="VQkqaN84CaBkrBaP3wh3-1">
          <mxGeometry x="40" y="600" width="920" height="120" as="geometry" />
        </mxCell>
        <mxCell id="VQkqaN84CaBkrBaP3wh3-6" value="" style="rounded=0;labelBackgroundColor=#FFFFFF;fillColor=#F2F2F2;strokeColor=#DEDEDE;" vertex="1" parent="VQkqaN84CaBkrBaP3wh3-1">
          <mxGeometry x="760" y="40" width="200" height="520" as="geometry" />
        </mxCell>
        <mxCell id="VQkqaN84CaBkrBaP3wh3-10" value="" style="rounded=0;labelBackgroundColor=#FFFFFF;fillColor=#F2F2F2;strokeColor=#DEDEDE;" vertex="1" parent="VQkqaN84CaBkrBaP3wh3-1">
          <mxGeometry x="520" y="40" width="200" height="520" as="geometry" />
        </mxCell>
        <mxCell id="VQkqaN84CaBkrBaP3wh3-13" value="" style="group" vertex="1" connectable="0" parent="VQkqaN84CaBkrBaP3wh3-1">
          <mxGeometry x="40" y="40" width="200" height="520" as="geometry" />
        </mxCell>
        <mxCell id="VQkqaN84CaBkrBaP3wh3-3" value="" style="rounded=0;labelBackgroundColor=#FFFFFF;fillColor=#F2F2F2;strokeColor=#DEDEDE;" vertex="1" parent="VQkqaN84CaBkrBaP3wh3-13">
          <mxGeometry width="200" height="520" as="geometry" />
        </mxCell>
        <mxCell id="VQkqaN84CaBkrBaP3wh3-9" value="&lt;b&gt;Ingest&lt;/b&gt;" style="text;html=1;strokeColor=none;fillColor=none;align=center;verticalAlign=middle;whiteSpace=wrap;rounded=0;" vertex="1" parent="VQkqaN84CaBkrBaP3wh3-13">
          <mxGeometry x="60" y="10" width="80" height="30" as="geometry" />
        </mxCell>
        <mxCell id="VQkqaN84CaBkrBaP3wh3-14" value="" style="group" vertex="1" connectable="0" parent="VQkqaN84CaBkrBaP3wh3-1">
          <mxGeometry x="280" y="40" width="200" height="520" as="geometry" />
        </mxCell>
        <mxCell id="VQkqaN84CaBkrBaP3wh3-4" value="" style="rounded=0;labelBackgroundColor=#FFFFFF;fillColor=#F2F2F2;strokeColor=#DEDEDE;" vertex="1" parent="VQkqaN84CaBkrBaP3wh3-14">
          <mxGeometry width="200" height="520" as="geometry" />
        </mxCell>
        <mxCell id="VQkqaN84CaBkrBaP3wh3-11" value="&lt;b&gt;Store&lt;/b&gt;" style="text;html=1;strokeColor=none;fillColor=none;align=center;verticalAlign=middle;whiteSpace=wrap;rounded=0;" vertex="1" parent="VQkqaN84CaBkrBaP3wh3-14">
          <mxGeometry x="60" y="10" width="80" height="30" as="geometry" />
        </mxCell>
        <mxCell id="VQkqaN84CaBkrBaP3wh3-15" value="&lt;b&gt;Process&lt;/b&gt;" style="text;html=1;strokeColor=none;fillColor=none;align=center;verticalAlign=middle;whiteSpace=wrap;rounded=0;" vertex="1" parent="VQkqaN84CaBkrBaP3wh3-1">
          <mxGeometry x="580" y="50" width="80" height="30" as="geometry" />
        </mxCell>
        <mxCell id="VQkqaN84CaBkrBaP3wh3-16" value="&lt;b&gt;Serve&lt;/b&gt;" style="text;html=1;strokeColor=none;fillColor=none;align=center;verticalAlign=middle;whiteSpace=wrap;rounded=0;" vertex="1" parent="VQkqaN84CaBkrBaP3wh3-1">
          <mxGeometry x="820" y="50" width="80" height="30" as="geometry" />
        </mxCell>
        <mxCell id="VQkqaN84CaBkrBaP3wh3-12" value="" style="group" vertex="1" connectable="0" parent="1">
          <mxGeometry x="-120" y="240" width="200" height="520" as="geometry" />
        </mxCell>
        <mxCell id="VQkqaN84CaBkrBaP3wh3-7" value="" style="rounded=0;labelBackgroundColor=#FFFFFF;fillColor=#F2F2F2;strokeColor=#DEDEDE;" vertex="1" parent="VQkqaN84CaBkrBaP3wh3-12">
          <mxGeometry width="200" height="520" as="geometry" />
        </mxCell>
        <mxCell id="VQkqaN84CaBkrBaP3wh3-8" value="&lt;b&gt;Data sources&lt;/b&gt;" style="text;html=1;strokeColor=none;fillColor=none;align=center;verticalAlign=middle;whiteSpace=wrap;rounded=0;" vertex="1" parent="VQkqaN84CaBkrBaP3wh3-12">
          <mxGeometry x="60" y="10" width="80" height="30" as="geometry" />
        </mxCell>
      </root>
    </mxGraphModel>
  </diagram>
</mxfile>
